<svg width="206" height="207" viewBox="0 0 206 207" fill="none" xmlns="http://www.w3.org/2000/svg">
<g clip-path="url(#clip0_214_330)">
<path d="M104.884 66.2346L108.233 61.448L124.423 38.3212C126.154 35.853 127.877 33.3824 129.593 30.9095C129.721 30.7082 129.901 30.5454 130.113 30.4387C130.326 30.3319 130.564 30.2851 130.801 30.3031C143.467 30.3031 156.133 30.3031 168.799 30.3031C169.638 30.3031 169.894 30.5528 169.894 31.3946C169.894 39.4792 169.894 47.5377 169.894 55.57C169.894 56.4189 169.659 56.6329 168.792 56.6329H161.681V115.349C161.902 115.349 162.129 115.349 162.393 115.349H168.87C169.688 115.349 169.937 115.591 169.937 116.404V140.58C169.937 141.45 169.709 141.678 168.856 141.678H135.914C134.961 141.678 134.755 141.457 134.755 140.48C134.755 131.487 134.755 122.487 134.755 113.48V112.938H134.079C125.623 112.938 117.166 112.938 108.71 112.938C108.317 112.967 107.923 112.886 107.573 112.705C107.223 112.524 106.93 112.249 106.726 111.91C105.93 110.691 105.062 109.521 104.187 108.287C103.22 109.656 102.296 110.969 101.343 112.281L87.2578 132.419C85.2314 135.315 83.1979 138.197 81.1785 141.094C81.0648 141.282 80.902 141.435 80.7078 141.537C80.5135 141.638 80.2952 141.685 80.0764 141.671H53.8678C53.4767 141.671 53.0928 141.671 52.8581 141.258C52.6235 140.844 52.8581 140.544 53.0643 140.188L70.3424 115.563L89.5402 88.1701C89.6185 88.0631 89.6825 87.9561 89.7749 87.8134L72.8666 63.7878H72.7386C72.7386 63.9519 72.7386 64.1159 72.7386 64.28V105.069C72.7386 107.124 72.7386 109.181 72.7386 111.24C72.7668 111.477 72.7406 111.717 72.6619 111.942C72.5831 112.168 72.4541 112.372 72.2845 112.539C72.1149 112.706 71.9094 112.833 71.6837 112.908C71.4579 112.983 71.218 113.005 70.9823 112.973H38.2749C38.0352 113.01 37.7902 112.991 37.5591 112.917C37.328 112.843 37.1171 112.717 36.9428 112.548C36.7686 112.378 36.6358 112.171 36.5548 111.942C36.4738 111.712 36.4468 111.467 36.476 111.226C36.476 102.884 36.476 94.5474 36.476 86.2155C36.4447 85.9735 36.4698 85.7276 36.5493 85.497C36.6288 85.2664 36.7606 85.0575 36.9343 84.8867C37.108 84.7159 37.3189 84.5878 37.5503 84.5127C37.7816 84.4375 38.0273 84.4173 38.2678 84.4536H44.2973V28.534H38.3318C37.0377 28.534 36.476 27.9776 36.476 26.6793C36.476 18.3997 36.476 10.1201 36.476 1.84045C36.4394 1.59025 36.462 1.33493 36.542 1.09512C36.6219 0.855304 36.757 0.63773 36.9363 0.459965C37.1155 0.282199 37.334 0.149233 37.5739 0.0718106C37.8139 -0.00561155 38.0686 -0.0253266 38.3176 0.0142732H70.7975C72.0773 0.0142732 72.6746 0.592084 72.6746 1.86185V49.2854C72.7972 49.163 72.9134 49.0344 73.023 48.9002L89.0923 25.8946C94.9228 17.5627 100.748 9.22839 106.569 0.891702C106.757 0.60564 107.016 0.373597 107.32 0.218473C107.624 0.0633497 107.963 -0.00948358 108.304 0.00715449H134.229C134.552 -0.0310953 134.879 0.0286436 135.168 0.178678C135.457 0.328713 135.694 0.562157 135.85 0.848903C135.996 1.14915 136.051 1.48629 136.007 1.8177C135.962 2.1491 135.821 2.45987 135.601 2.71074L118.465 27.2143L99.6227 54.1718C99.1605 54.8352 98.6699 55.4915 98.2362 56.1763C98.1839 56.2689 98.1529 56.3721 98.1455 56.4782C98.1382 56.5844 98.1546 56.6908 98.1935 56.7898C100.346 59.9095 102.514 63.0174 104.699 66.1133C104.757 66.1597 104.819 66.2003 104.884 66.2346ZM134.748 64.8079C134.584 65.0005 134.477 65.1075 134.392 65.2288C129.424 72.329 124.447 79.4268 119.46 86.5222C119.373 86.6203 119.325 86.7473 119.325 86.8789C119.325 87.0105 119.373 87.1375 119.46 87.2356C124.466 94.3691 129.465 101.519 134.456 108.686C134.508 108.781 134.548 108.881 134.577 108.986L134.726 108.857L134.748 64.8079Z" fill="white"/>
<path d="M0 207V163.486H8.93767V180.335H13.1612L20.2715 163.457H29.9629L21.0252 184.273L30.2686 207H20.5133L13.1399 188.567H8.93767V207H0Z" fill="white"/>
<path d="M36.5613 207V163.486H63.3174V171.118H45.2999V180.899H61.2341V188.538H45.2999V199.389H63.3174V207.028L36.5613 207Z" fill="white"/>
<path d="M71.0461 207V163.486H81.4627L92.697 197.184C92.5833 195.715 92.4411 194.017 92.2846 192.084C92.1282 190.151 91.9931 188.232 91.8936 186.298C91.794 184.365 91.7514 182.732 91.7514 181.376V163.457H99.5727V206.971H89.1774L78.0569 173.273C78.1801 174.542 78.301 176.052 78.4195 177.802C78.5333 179.55 78.6471 181.319 78.7466 183.11C78.8461 184.9 78.8888 186.491 78.8888 187.882V206.971L71.0461 207Z" fill="white"/>
<path d="M107.607 207V198.647L123.542 171.803H108.084V163.457H133.681V171.803L117.725 198.647H134.364V207H107.607Z" fill="white"/>
<path d="M143.572 207V199.246H152.196V171.204H143.572V163.457H169.73V171.204H161.098V199.239H169.716V206.993L143.572 207Z" fill="white"/>
<path d="M179.244 207V163.486H206V171.118H187.982V180.899H203.917V188.538H187.982V199.389H206V207.028L179.244 207Z" fill="white"/>
</g>
<defs>
<clipPath id="clip0_214_330">
<rect width="206" height="207" fill="white"/>
</clipPath>
</defs>
</svg>
